<svg xmlns="http://www.w3.org/2000/svg" width="98" height="79" fill="none"><path fill="#FFF1DA" d="M97.952 60.755c0 9.94-8.059 18-18 18H51.934a5 5 0 0 1-5-5V39.28c0-5.523 4.477-10 10-10h36.018a5 5 0 0 1 5 5v26.474Z"/><g filter="url(#a)"><path fill="#407093" d="m28.085 51.147-1.926-.912L14.714 66.98h12.772l1.231-.794V51.72l-.632-.573Z"/><path fill="#365E7D" d="M26.333 50.317 22 48.265h-.816L8.937 66.185l.729.795h5.278l11.389-16.663Z"/><path fill="#4A80AA" d="M31.017 66.186h-16.89c-.767 0-1.39.615-1.39 1.374v1.742c0 .76.623 1.375 1.39 1.375h16.89c.767 0 1.389-.615 1.389-1.375V67.56c0-.76-.622-1.374-1.39-1.374Z"/><path fill="#407093" d="M13.025 69.302V67.56c0-.759.622-1.374 1.39-1.374H5.468c-.767 0-1.389.615-1.389 1.374v1.742c0 .76.622 1.375 1.39 1.375h8.946c-.768 0-1.39-.615-1.39-1.375Z"/><path fill="#4A80AA" d="M25.752 40.37a7.953 7.953 0 0 0-.814 3.51c0 3.44 2.177 6.373 5.24 7.534a7.968 7.968 0 0 0 3.408-2.112v-1.757l-7.834-7.176Z"/><path fill="#407093" d="M25.075 43.907c0-1.23.287-2.392.796-3.428l-2.504-2.294H22.35a7.805 7.805 0 0 0-2.497 5.722c0 4.344 3.56 7.866 7.95 7.866a8 8 0 0 0 2.61-.436c-3.108-1.07-5.338-3.991-5.338-7.43Z"/><path fill="#FFD086" d="M71.23.934a3.245 3.245 0 0 0-4.555 0l-3.074 3.042v.385l3.837 3.958.719.165 3.074-3.042a3.164 3.164 0 0 0 0-4.508Z"/><path fill="#FFC365" d="M72.08 2.438a3.16 3.16 0 0 0-.85-1.504 3.245 3.245 0 0 0-4.555 0l-3.074 3.042v.385l2.034 2.099a280.073 280.073 0 0 1 3.037-3.094c1.032-1.022 2.54-1.03 3.409-.928Z"/><path fill="#365E7D" d="M60.706 9.037c-.035 0-.07-.002-.106-.005l-35.526-3.46a1.07 1.07 0 0 1-.967-1.166 1.075 1.075 0 0 1 1.178-.957l35.526 3.46a1.07 1.07 0 0 1 .967 1.165c-.055.551-.524.963-1.072.963Z"/><path fill="#407093" d="M35.349 15.618c-.478 0-.915-.318-1.042-.797a1.066 1.066 0 0 1 .77-1.302l25.355-6.581a1.08 1.08 0 0 1 1.316.761 1.066 1.066 0 0 1-.769 1.302l-25.356 6.582a1.097 1.097 0 0 1-.274.035Z"/><path fill="#365E7D" d="M67.593 47.592a1.074 1.074 0 0 1-1.072-.963l-3.475-35.175a1.07 1.07 0 0 1 .968-1.165 1.077 1.077 0 0 1 1.178.958l3.475 35.175a1.07 1.07 0 0 1-1.074 1.17Z"/><path fill="#407093" d="M57.368 37.608c-.092 0-.185-.012-.277-.036a1.065 1.065 0 0 1-.766-1.304l6.749-25.188a1.08 1.08 0 0 1 1.318-.758c.575.152.918.735.765 1.305L58.41 36.814a1.076 1.076 0 0 1-1.041.794Z"/><path fill="#FFC365" d="m60.512 7.031 3.082-3.05 4.555 4.508-3.082 3.05-4.555-4.508Z"/><path fill="#FFA90F" d="M62.852 9.335c.741-.767 1.898-1.965 3.017-3.116L63.6 3.975l-3.082 3.05 2.333 2.31Z"/><path fill="#4A80AA" d="M65.76 13.28a1.08 1.08 0 0 1-.761-.313L59.07 7.1a1.059 1.059 0 0 1 0-1.508 1.086 1.086 0 0 1 1.524 0l5.928 5.865a1.059 1.059 0 0 1 0 1.509 1.08 1.08 0 0 1-.762.312Z"/><path fill="#B5DCFF" d="m66.456 49.512-36.09-36.023c-4.786 10.69-5.616 22.164-2.034 32.059 9.892 8.83 24.67 10.186 38.275 4.635l-.15-.671Z"/><path fill="#8BCAFF" d="m30.558 13.681-8.27-8.253-.828.08c-5.826 13.982-4.125 29.216 5.749 38.987a29.903 29.903 0 0 0 1.854 1.686c-4.162-9.883-3.486-21.638 1.495-32.5Z"/><path fill="#DBEDFF" d="M69.754 46.952 33.151 10.73c-.36.055-.707.217-.985.491l-1.592 1.576a1.74 1.74 0 0 0-.517 1.224l36.488 36.105a1.4 1.4 0 0 0 1.965 0l1.245-1.231a1.364 1.364 0 0 0 0-1.944Z"/><path fill="#B5DCFF" d="m30.63 12.825 1.558-1.543c.287-.284.65-.446 1.024-.49l-8.486-8.397a1.4 1.4 0 0 0-1.964 0l-1.245 1.232a1.364 1.364 0 0 0 0 1.944l8.605 8.514a1.706 1.706 0 0 1 .507-1.26Z"/></g><defs><filter id="a" width="76.095" height="78.677" x=".079" y="0" color-interpolation-filters="sRGB" filterUnits="userSpaceOnUse"><feFlood flood-opacity="0" result="BackgroundImageFix"/><feColorMatrix in="SourceAlpha" result="hardAlpha" values="0 0 0 0 0 0 0 0 0 0 0 0 0 0 0 0 0 0 127 0"/><feOffset dy="4"/><feGaussianBlur stdDeviation="2"/><feComposite in2="hardAlpha" operator="out"/><feColorMatrix values="0 0 0 0 0 0 0 0 0 0 0 0 0 0 0 0 0 0 0.25 0"/><feBlend in2="BackgroundImageFix" result="effect1_dropShadow_201_797"/><feBlend in="SourceGraphic" in2="effect1_dropShadow_201_797" result="shape"/></filter></defs></svg>