<svg xmlns="http://www.w3.org/2000/svg" width="131" height="108" fill="none"><path fill="#FFF1DA" d="M27.488 46.785c0 9.942 8.06 18 18 18h28.018a5 5 0 0 0 5-5V25.311c0-5.523-4.477-10-10-10H32.49a5 5 0 0 0-5 5v26.474Z"/><path fill="#D5D6DB" d="M76.76 60.704a9.96 9.96 0 0 0-3.875 1.338c-3.089 1.795-4.775 4.659-3.767 6.396 1.008 1.737 4.329 1.689 7.417-.106a9.995 9.995 0 0 0 3.083-2.705 1.688 1.688 0 0 0 .08-1.83l-1.31-2.256a1.681 1.681 0 0 0-1.627-.837ZM68.796 33.445a7.223 7.223 0 0 0-2.81.971c-2.24 1.302-3.463 3.378-2.733 4.637.73 1.258 3.14 1.223 5.378-.078a7.255 7.255 0 0 0 2.236-1.962c.278-.389.3-.909.057-1.327l-.948-1.634a1.219 1.219 0 0 0-1.18-.607Z"/><path fill="#029BC5" d="M55.692 33.346a.913.913 0 0 0-.66.1l-5.25 3.046a.923.923 0 0 0-.33 1.265.936.936 0 0 0 .229.265l14.076 11.223 17.508-10.156-25.573-5.743Z"/><path fill="#E1E6E9" d="M113.542 35.717 64.573 65.192l-29.425 9.755-15.205 1.606-1.882-3.355 81.69-48a15.329 15.329 0 0 1 8.008-2.138c1.232.024 2.458.208 3.65.55 1.056.293 2.067.742 3.005 1.333 1.046.668 2.98.952 3.67 2.124.002-.001 1.776 5.22-4.542 8.65Z"/><path fill="#029BC5" d="M63.983 58.702 44.37 93.62c-.242.494-.044 1.1.44 1.353.297.156.65.147.935-.022l5.335-3.161a8.669 8.669 0 0 0 2.62-2.406l39.175-48.688-28.892 18.007ZM10.258 57.984a1.233 1.233 0 0 0-1.123.05L4.84 60.498a1.212 1.212 0 0 0-.437 1.669c.065.111.148.212.244.298L17.82 74.258l12.662-7.09-20.224-9.184ZM21.257 75.312l-6.321 9.697a.315.315 0 0 0 .078.428c.099.07.227.074.328.01l4.13-2.454a.302.302 0 0 0 .083-.074l9.357-12.15-7.655 4.543ZM111.18 23.383a14.763 14.763 0 0 0-3.679-.537 11.495 11.495 0 0 0-1.902 5.596.743.743 0 0 0 .738.735.715.715 0 0 0 .355-.095l7.517-4.394a11.573 11.573 0 0 0-3.029-1.305Z"/><path fill="#D5D6DB" d="m94.35 31.713 4.72-2.642 5.068 8.472-4.72 2.641-5.069-8.471Z"/><path fill="#3A556A" d="M91.09 35.268a1.157 1.157 0 0 0-.425 1.61l.546.92c.356.557 1.1.733 1.66.393a1.156 1.156 0 0 0 .41-1.553l-.546-.921a1.228 1.228 0 0 0-1.645-.449ZM86.535 38.067a1.157 1.157 0 0 0-.425 1.61l.546.92c.356.557 1.1.733 1.66.394a1.156 1.156 0 0 0 .41-1.554l-.546-.92a1.228 1.228 0 0 0-1.645-.45ZM81.978 40.867a1.157 1.157 0 0 0-.424 1.609l.546.92c.357.557 1.1.733 1.66.394a1.156 1.156 0 0 0 .411-1.554l-.546-.92a1.228 1.228 0 0 0-1.647-.449ZM77.423 43.667a1.157 1.157 0 0 0-.424 1.608l.546.92c.356.558 1.1.734 1.66.394a1.156 1.156 0 0 0 .41-1.554l-.546-.92a1.228 1.228 0 0 0-1.646-.448ZM72.868 46.466a1.156 1.156 0 0 0-.425 1.608l.547.92a1.227 1.227 0 0 0 1.645.448c.571-.32.761-1.04.425-1.607l-.547-.92a1.227 1.227 0 0 0-1.644-.45h-.001ZM68.313 49.265a1.156 1.156 0 0 0-.425 1.608l.546.92a1.227 1.227 0 0 0 1.645.448c.572-.32.762-1.04.425-1.607l-.546-.92a1.227 1.227 0 0 0-1.645-.449ZM63.757 52.064a1.156 1.156 0 0 0-.424 1.609l.546.92a1.227 1.227 0 0 0 1.645.445c.57-.32.76-1.038.424-1.604l-.546-.92a1.228 1.228 0 0 0-1.645-.45ZM59.202 54.864a1.156 1.156 0 0 0-.425 1.608l.546.92a1.227 1.227 0 0 0 1.645.446c.57-.32.76-1.038.425-1.605l-.546-.92a1.228 1.228 0 0 0-1.645-.45ZM54.646 57.663a1.156 1.156 0 0 0-.424 1.608l.546.92a1.227 1.227 0 0 0 1.645.446c.57-.32.76-1.038.425-1.605l-.547-.92a1.228 1.228 0 0 0-1.645-.449ZM50.09 60.463a1.155 1.155 0 0 0-.426 1.607l.001.001.546.92a1.227 1.227 0 0 0 1.645.446c.57-.32.76-1.038.425-1.605l-.546-.92a1.228 1.228 0 0 0-1.646-.449ZM45.535 63.261a1.155 1.155 0 0 0-.425 1.607l.001.002.546.92a1.227 1.227 0 0 0 1.646.446c.57-.32.76-1.039.424-1.605l-.546-.92a1.228 1.228 0 0 0-1.645-.45Z"/></svg>