<svg xmlns="http://www.w3.org/2000/svg" aria-hidden="true" style="position:absolute;width:0;height:0;overflow:hidden"><defs><symbol id="icon-menu" viewBox="0 0 55 32"><path fill="#737373" d="M1.306 0h52.245v5.224H1.306V0zm13.062 13.061h39.184v5.224H14.368v-5.224zm16.326 13.061h22.857v5.224H30.694v-5.224z"/></symbol><symbol
fill="none"   id="icon-arrow"  viewBox="0 0 53 32"><path stroke="#212832" d="m2.667 2.667 24 24 24-24"/></symbol>
<symbol id="icon-video" viewBox="0 0 30 32"><path  d="M29.538 16l-27.692 15.988v-31.976l27.692 15.988z"></path></symbol><symbol id="icon-plane" viewBox="0 0 6 32">
<path fill="#d5d6db" style="fill: var(--color1, #d5d6db)" d="M3.536 16.751c-0.067 0.023-0.134 0.058-0.196 0.102-0.16 0.112-0.26 0.253-0.222 0.316s0.198 0.022 0.359-0.090c0.062-0.043 0.119-0.094 0.166-0.151 0.022-0.027 0.028-0.058 0.015-0.079l-0.049-0.081c-0.012-0.021-0.041-0.027-0.073-0.017z"></path>
<path fill="#d5d6db" style="fill: var(--color1, #d5d6db)" d="M3.145 15.429c-0.049 0.017-0.097 0.042-0.142 0.074-0.116 0.081-0.188 0.184-0.161 0.229s0.144 0.016 0.26-0.065c0.045-0.031 0.086-0.068 0.12-0.109 0.016-0.020 0.020-0.042 0.011-0.057l-0.035-0.059c-0.009-0.015-0.030-0.020-0.053-0.012z"></path>
<path fill="#029bc5" style="fill: var(--color2, #029bc5)" d="M2.519 15.561c-0.011 0-0.022 0.005-0.033 0.012l-0.274 0.192c-0.023 0.016-0.034 0.042-0.024 0.058 0.002 0.004 0.005 0.007 0.009 0.009l0.611 0.318 0.913-0.639-1.202 0.051z"></path>
<path fill="#e1e6e9" style="fill: var(--color3, #e1e6e9)" d="M5.264 15.294l-2.407 1.569-1.4 0.653-0.704 0.212-0.067-0.103 4.009-2.575c0.119-0.077 0.25-0.132 0.378-0.159 0.056-0.012 0.111-0.017 0.163-0.017 0.047 0 0.090 0.006 0.13 0.018 0.044 0.014 0.131 0.005 0.155 0.040 0-0 0.051 0.172-0.257 0.361z"></path>
<path fill="#029bc5" style="fill: var(--color2, #029bc5)" d="M2.954 16.797l-1.126 1.577c-0.014 0.022-0.009 0.044 0.012 0.048 0.013 0.003 0.029-0.001 0.044-0.011l0.268-0.181c0.052-0.035 0.098-0.076 0.137-0.122l2.123-2.326-1.458 1.015z"></path>
<path fill="#029bc5" style="fill: var(--color2, #029bc5)" d="M0.341 16.727c-0.017-0.003-0.038 0.003-0.056 0.016l-0.229 0.162c-0.031 0.022-0.046 0.058-0.033 0.080 0.002 0.004 0.006 0.008 0.010 0.010l0.575 0.369 0.673-0.471-0.941-0.167z"></path>
<path fill="#029bc5" style="fill: var(--color2, #029bc5)" d="M0.858 17.498l-0.352 0.442c-0.005 0.006-0.005 0.013 0.001 0.016 0.004 0.002 0.010 0 0.015-0.003l0.207-0.139c0.002-0.001 0.003-0.002 0.004-0.004l0.508-0.569-0.383 0.257z"></path>
<path fill="#029bc5" style="fill: var(--color2, #029bc5)" d="M5.167 14.926c-0.055-0-0.113 0.006-0.172 0.019-0.063 0.081-0.107 0.169-0.126 0.254-0.002 0.017 0.011 0.027 0.031 0.022 0.006-0.001 0.012-0.004 0.018-0.008l0.386-0.267c-0.042-0.013-0.088-0.020-0.137-0.020z"></path>
<path fill="#d5d6db" style="fill: var(--color1, #d5d6db)" d="M4.35 15.409l0.265-0.191 0.205 0.348-0.265 0.191-0.205-0.348z"></path>
<path fill="#3a556a" style="fill: var(--color4, #3a556a)" d="M4.201 15.532c-0.032 0.023-0.047 0.060-0.033 0.082l0.021 0.036c0.014 0.022 0.051 0.020 0.082-0.004 0.030-0.023 0.044-0.057 0.032-0.079l-0.021-0.036c-0.013-0.022-0.050-0.022-0.081 0.001z"></path>
<path fill="#3a556a" style="fill: var(--color4, #3a556a)" d="M3.982 15.668c-0.032 0.023-0.047 0.060-0.033 0.082l0.021 0.036c0.014 0.022 0.051 0.020 0.082-0.004 0.030-0.023 0.044-0.057 0.032-0.079l-0.021-0.036c-0.013-0.022-0.050-0.022-0.081 0.001z"></path>
<path fill="#3a556a" style="fill: var(--color4, #3a556a)" d="M3.763 15.803c-0.032 0.023-0.047 0.060-0.033 0.082l0.021 0.036c0.014 0.022 0.051 0.020 0.082-0.004 0.030-0.023 0.044-0.057 0.032-0.079l-0.021-0.036c-0.013-0.023-0.050-0.022-0.081 0.001z"></path>
<path fill="#3a556a" style="fill: var(--color4, #3a556a)" d="M3.544 15.939c-0.032 0.023-0.047 0.060-0.033 0.082l0.021 0.036c0.014 0.022 0.051 0.020 0.082-0.004 0.030-0.023 0.044-0.057 0.032-0.079l-0.021-0.036c-0.013-0.022-0.050-0.022-0.081 0.001z"></path>
<path fill="#3a556a" style="fill: var(--color4, #3a556a)" d="M3.326 16.075c-0.032 0.023-0.047 0.060-0.033 0.082l0.022 0.036c0.013 0.022 0.050 0.022 0.081-0.001s0.047-0.060 0.033-0.082l-0.022-0.036c-0.013-0.023-0.050-0.022-0.081 0.001-0 0-0 0-0 0z"></path>
<path fill="#3a556a" style="fill: var(--color4, #3a556a)" d="M3.107 16.211c-0.032 0.023-0.047 0.060-0.033 0.082l0.022 0.036c0.013 0.022 0.050 0.022 0.081-0.001s0.047-0.060 0.033-0.082l-0.022-0.036c-0.013-0.023-0.050-0.022-0.081 0.001-0 0-0 0-0 0z"></path>
<path fill="#3a556a" style="fill: var(--color4, #3a556a)" d="M2.888 16.347c-0.032 0.023-0.047 0.060-0.033 0.082l0.022 0.036c0.013 0.022 0.050 0.022 0.081-0.001s0.046-0.060 0.033-0.082l-0.022-0.036c-0.013-0.023-0.050-0.022-0.081 0.001z"></path>
<path fill="#3a556a" style="fill: var(--color4, #3a556a)" d="M2.669 16.483c-0.032 0.023-0.047 0.060-0.033 0.082l0.022 0.036c0.013 0.022 0.050 0.022 0.081-0.001s0.046-0.060 0.033-0.082l-0.022-0.036c-0.013-0.023-0.050-0.022-0.081 0.001z"></path>
<path fill="#3a556a" style="fill: var(--color4, #3a556a)" d="M2.451 16.619c-0.032 0.023-0.047 0.060-0.033 0.082l0.022 0.036c0.013 0.022 0.050 0.022 0.081-0.001s0.046-0.060 0.033-0.082l-0.022-0.036c-0.013-0.022-0.050-0.022-0.081 0.001z"></path>
<path fill="#3a556a" style="fill: var(--color4, #3a556a)" d="M2.232 16.755c-0.032 0.023-0.047 0.060-0.033 0.082l0 0 0.022 0.036c0.013 0.022 0.050 0.022 0.081-0.001s0.046-0.060 0.033-0.082l-0.022-0.036c-0.013-0.023-0.050-0.022-0.081 0.001z"></path>
<path fill="#3a556a" style="fill: var(--color4, #3a556a)" d="M2.013 16.89c-0.032 0.023-0.047 0.060-0.033 0.082l0 0 0.021 0.036c0.013 0.022 0.050 0.022 0.081-0.001s0.046-0.060 0.033-0.082l-0.022-0.036c-0.013-0.023-0.050-0.022-0.081 0.001z"></path>
</symbol><symbol id="icon-navigation" viewBox="0 0 30 32">
<path d="M29.748 1.892l-12.321 28.062c-0.103 0.235-0.278 0.428-0.497 0.548s-0.47 0.162-0.714 0.117-0.467-0.172-0.634-0.363c-0.167-0.191-0.269-0.434-0.289-0.692l-1.042-13.045-12.497-1.087c-0.247-0.021-0.48-0.128-0.663-0.302s-0.305-0.407-0.348-0.662c-0.043-0.255-0.003-0.517 0.112-0.746s0.3-0.411 0.525-0.519l26.883-12.862c0.208-0.099 0.44-0.13 0.665-0.088s0.432 0.155 0.594 0.324c0.162 0.169 0.27 0.385 0.31 0.62s0.011 0.477-0.084 0.694l0 0z"></path>
</symbol><symbol id="icon-car" viewBox="0 0 38 32"><path fill="#fff" d="M7.2 17.8a2.402 2.402 0 0 0-2.354 2.868A2.4 2.4 0 1 0 7.2 17.8zm0 3.6a1.202 1.202 0 0 1-1.177-1.434 1.205 1.205 0 0 1 .942-.942 1.2 1.2 0 1 1 .234 2.377zM31.2 17.8a2.402 2.402 0 0 0-2.354 2.868A2.4 2.4 0 1 0 31.2 17.8zm0 3.6a1.202 1.202 0 0 1-1.177-1.434 1.205 1.205 0 0 1 .942-.942 1.2 1.2 0 1 1 .234 2.377zM13.8 20.8h10.8V22H13.8v-1.2zM13.8 18.4h10.8v1.2H13.8v-1.2zM17.4 9.4H21v1.2h-3.6V9.4z" style="fill:var(--color1, #fff)"/><path fill="#fff" d="M37.2 14.8v-1.2a1.804 1.804 0 0 0-1.8-1.8h-2.376l-1.242-4.356-.372-1.482A1.8 1.8 0 0 0 29.664 4.6H24.6V2.2A1.204 1.204 0 0 0 23.4 1H15a1.209 1.209 0 0 0-1.2 1.2v2.4H8.736A1.798 1.798 0 0 0 6.99 5.962l-.366 1.476L5.376 11.8H3a1.804 1.804 0 0 0-1.8 1.8v1.2a1.793 1.793 0 0 0 .846 1.518A2.986 2.986 0 0 0 1.2 18.4v7.2a1.802 1.802 0 0 0 .6 1.332V29.2A1.804 1.804 0 0 0 3.6 31h4.8a1.804 1.804 0 0 0 1.8-1.8v-1.8h18v1.8A1.804 1.804 0 0 0 30 31h4.8a1.804 1.804 0 0 0 1.8-1.8v-2.268a1.787 1.787 0 0 0 .6-1.332v-7.2c0-.778-.304-1.525-.846-2.082A1.795 1.795 0 0 0 37.2 14.8zM15 2.2h8.4v2.4H15V2.2zM8.154 6.256a.598.598 0 0 1 .582-.456h20.928a.6.6 0 0 1 .582.456l.186.744H7.968l.186-.744zM7.65 8.2h23.1l2.052 7.2H15.546A3.598 3.598 0 0 0 12 12.401 3.596 3.596 0 0 0 8.454 15.4H5.598L7.65 8.2zm6.666 7.2H9.684a2.39 2.39 0 0 1 4.632 0zM2.4 13.6A.597.597 0 0 1 3 13h2.034l-.684 2.4H3a.597.597 0 0 1-.6-.6v-1.2zM9 29.2a.597.597 0 0 1-.6.6H3.6a.597.597 0 0 1-.6-.6v-1.8h6v1.8zm26.4 0a.597.597 0 0 1-.6.6H30a.597.597 0 0 1-.6-.6v-1.8h6v1.8zm.6-3.6a.597.597 0 0 1-.6.6H3a.597.597 0 0 1-.6-.6V25H36v.6zm0-1.8H2.4v-5.4a1.804 1.804 0 0 1 1.8-1.8h30a1.804 1.804 0 0 1 1.8 1.8v5.4zm0-9a.597.597 0 0 1-.6.6h-1.35l-.684-2.4H35.4a.597.597 0 0 1 .6.6v1.2z" style="fill:var(--color1, #fff)"/></symbol><symbol id="icon-water-sport" viewBox="0 0 43 32"><path fill="#fff" d="M37.011 31.873a3.928 3.928 0 0 1-2.253-.656 3.051 3.051 0 0 0-3.336 0 4.188 4.188 0 0 1-4.504 0 3.051 3.051 0 0 0-3.336 0 4.188 4.188 0 0 1-4.504 0 3.046 3.046 0 0 0-3.334 0 3.898 3.898 0 0 1-2.055.65l-.04-1.153a2.771 2.771 0 0 0 1.511-.492 4.197 4.197 0 0 1 4.504 0 3.051 3.051 0 0 0 3.336 0 4.192 4.192 0 0 1 4.506 0 3.051 3.051 0 0 0 3.336 0 4.2 4.2 0 0 1 4.504 0 3.055 3.055 0 0 0 3.344 0 3.924 3.924 0 0 1 2.249-.655v1.153a2.8 2.8 0 0 0-1.669.497 3.937 3.937 0 0 1-2.258.657zM5.651 31.873a3.91 3.91 0 0 1-2.252-.656 2.798 2.798 0 0 0-1.669-.497v-1.153c.8-.017 1.587.212 2.253.656a2.795 2.795 0 0 0 1.668.497 2.792 2.792 0 0 0 1.669-.498 3.908 3.908 0 0 1 2.249-.656 3.874 3.874 0 0 1 2.2.627l-.582.995a2.761 2.761 0 0 0-1.618-.469 2.783 2.783 0 0 0-1.662.496 3.914 3.914 0 0 1-2.256.657zM37.012 27.837a3.924 3.924 0 0 1-2.254-.656 3.052 3.052 0 0 0-3.338 0 4.197 4.197 0 0 1-4.504 0 3.048 3.048 0 0 0-3.335 0 4.197 4.197 0 0 1-4.504 0 3.048 3.048 0 0 0-3.334 0 3.91 3.91 0 0 1-2.252.656 3.91 3.91 0 0 1-2.252-.656 2.794 2.794 0 0 0-1.667-.497 2.794 2.794 0 0 0-1.667.497 3.916 3.916 0 0 1-2.249.656 3.913 3.913 0 0 1-2.253-.656 2.79 2.79 0 0 0-1.671-.497v-1.153c.8-.017 1.586.213 2.252.656a2.798 2.798 0 0 0 1.669.497 2.794 2.794 0 0 0 1.667-.497 3.916 3.916 0 0 1 2.249-.656 3.916 3.916 0 0 1 2.254.656 2.795 2.795 0 0 0 1.668.497 2.795 2.795 0 0 0 1.668-.497 4.188 4.188 0 0 1 4.504 0 3.049 3.049 0 0 0 3.336 0 4.188 4.188 0 0 1 4.504 0 3.049 3.049 0 0 0 3.336 0 4.203 4.203 0 0 1 4.508 0 3.058 3.058 0 0 0 3.34 0 3.931 3.931 0 0 1 2.254-.656v1.153a2.793 2.793 0 0 0-1.672.497 3.926 3.926 0 0 1-2.253.656zM37.011 23.801a3.93 3.93 0 0 1-2.253-.656 2.798 2.798 0 0 0-1.669-.497 2.65 2.65 0 0 0-1.262.271l-.509-1.038a3.809 3.809 0 0 1 1.771-.388 3.921 3.921 0 0 1 2.255.658 3.055 3.055 0 0 0 3.344 0 3.93 3.93 0 0 1 2.249-.656v1.153a2.806 2.806 0 0 0-1.669.496 3.937 3.937 0 0 1-2.258.657zM29.163 23.801a3.907 3.907 0 0 1-2.249-.655 3.051 3.051 0 0 0-3.336 0 4.197 4.197 0 0 1-4.504 0 3.051 3.051 0 0 0-3.336 0 3.914 3.914 0 0 1-2.251.655 3.91 3.91 0 0 1-2.252-.656 2.798 2.798 0 0 0-1.669-.497 2.783 2.783 0 0 0-1.662.496 3.914 3.914 0 0 1-2.253.657 3.91 3.91 0 0 1-2.252-.656 2.798 2.798 0 0 0-1.669-.497v-1.153c.8-.017 1.587.212 2.253.656a2.795 2.795 0 0 0 1.668.497 2.792 2.792 0 0 0 1.669-.498 3.908 3.908 0 0 1 2.249-.656 3.91 3.91 0 0 1 2.252.656 2.795 2.795 0 0 0 1.668.497 2.8 2.8 0 0 0 1.669-.497 4.197 4.197 0 0 1 4.504 0 3.051 3.051 0 0 0 3.336 0 4.192 4.192 0 0 1 4.506 0 2.92 2.92 0 0 0 1.855.489l.153 1.143a2.711 2.711 0 0 1-.349.018zM37.012 19.764a3.931 3.931 0 0 1-2.254-.656 3.052 3.052 0 0 0-3.338 0 4.197 4.197 0 0 1-4.504 0 3.048 3.048 0 0 0-3.335 0 4.188 4.188 0 0 1-4.504 0 3.048 3.048 0 0 0-3.334 0 3.91 3.91 0 0 1-2.252.656 3.91 3.91 0 0 1-2.252-.656 2.794 2.794 0 0 0-1.667-.497 2.794 2.794 0 0 0-1.667.497 3.916 3.916 0 0 1-2.249.656 3.913 3.913 0 0 1-2.253-.656 2.79 2.79 0 0 0-1.671-.497v-1.153a3.91 3.91 0 0 1 2.252.656 2.798 2.798 0 0 0 1.669.497 2.794 2.794 0 0 0 1.667-.497 3.916 3.916 0 0 1 2.249-.656 3.916 3.916 0 0 1 2.254.656 2.795 2.795 0 0 0 1.668.497 2.795 2.795 0 0 0 1.668-.497 4.188 4.188 0 0 1 4.504 0 3.049 3.049 0 0 0 3.336 0 4.188 4.188 0 0 1 4.504 0 3.049 3.049 0 0 0 3.336 0 4.203 4.203 0 0 1 4.508 0 3.058 3.058 0 0 0 3.34 0 3.931 3.931 0 0 1 2.254-.656v1.153a2.793 2.793 0 0 0-1.672.497 3.926 3.926 0 0 1-2.253.656z" style="fill:var(--color1, #fff)"/><path fill="#fff" d="m28.796 19.275-1.088-.382a6.326 6.326 0 0 0-.338-4.949l-3.96-7.756a.576.576 0 0 1 .366-.819l7.893-2.104a1.01 1.01 0 0 0-.493-1.956l-9.553 2.283a1.384 1.384 0 0 0-.933.771 1.36 1.36 0 0 0 .044 1.209l2.837 5.27a.578.578 0 0 1-.231.779l-3.661 2.018-.556-1.01 3.161-1.742-2.563-4.767a2.524 2.524 0 0 1 .613-3.139 2.513 2.513 0 0 1 1.025-.51L30.907.188a2.159 2.159 0 0 1 2.386 3.203 2.161 2.161 0 0 1-1.327.988l-7.204 1.92 3.637 7.12a7.488 7.488 0 0 1 .399 5.856zM17.106 13.749l-7.007 3.861.556 1.009 7.007-3.861-.556-1.009z" style="fill:var(--color1, #fff)"/><path fill="#fff" d="M34.018 15.44a4.325 4.325 0 1 1 4.324-4.325 4.326 4.326 0 0 1-4.324 4.324zm0-7.495a3.177 3.177 0 0 0-2.93 1.957 3.168 3.168 0 0 0 2.312 4.324 3.165 3.165 0 0 0 3.255-1.348 3.178 3.178 0 0 0 .535-1.762 3.175 3.175 0 0 0-3.171-3.171z" style="fill:var(--color1, #fff)"/></symbol><symbol id="icon-square" viewBox="0 0 32 32"><path fill="#fff" d="M.792 6.51A.799.799 0 0 1 0 5.726V.793A.79.79 0 0 1 .792.001h4.933c.431 0 .784.353.784.792v1.718h18.98V.793c0-.431.353-.784.784-.792h4.933a.8.8 0 0 1 .792.792v4.933a.788.788 0 0 1-.792.784h-1.718v18.98h1.718c.431 0 .784.353.792.784v4.933a.8.8 0 0 1-.792.792h-4.933a.788.788 0 0 1-.784-.792v-1.718H6.509v1.718a.799.799 0 0 1-.784.792H.792A.8.8 0 0 1 0 31.207v-4.933c0-.431.353-.784.792-.784H2.51V6.51H.792zm29.639-1.569V1.568h-3.373v3.373h3.373zm-3.372 25.49h3.373v-3.373h-3.373v3.373zM6.51 26.274v1.647h18.98v-1.647c0-.431.353-.784.784-.784h1.647V6.51h-1.647a.787.787 0 0 1-.784-.784V4.079H6.51v1.647a.787.787 0 0 1-.784.784H4.079v18.98h1.647c.431 0 .784.353.784.784zm-4.941.785v3.373h3.373v-3.373H1.569zM4.941 4.941V1.568H1.568v3.373h3.373z" style="fill:var(--color1, #fff)"/></symbol>
<symbol id="icon-heart" viewBox="0 0 30 32"><path fill="#4152ca" d="M26.867 3.919c-1.5-1.743-3.603-2.734-5.805-2.738-2.204.003-4.309.994-5.811 2.737l-.512.585-.512-.585C11.245.45 6.227.251 3.018 3.473a8.28 8.28 0 0 0-.412.445c-3.163 3.687-3.163 9.384 0 13.071l11.38 12.969a.984.984 0 0 0 1.506 0l11.376-12.969c3.163-3.686 3.163-9.383 0-13.069zm-1.5 11.527h-.001L14.738 27.559 4.109 15.446c-2.416-2.817-2.416-7.17 0-9.987 2.194-2.57 5.901-2.731 8.279-.36.115.115.227.235.333.36L13.985 6.9a1.012 1.012 0 0 0 1.505 0l1.264-1.439c2.194-2.57 5.901-2.731 8.279-.36.116.115.227.235.333.36 2.437 2.821 2.455 7.182 0 9.985z" style="fill:var(--color1, #4152ca)"/></symbol><symbol id="icon-house" viewBox="0 0 30 32"><path fill="#84829a" d="M1.306 29.428h2.785v-16.55c0-.277.208-.502.464-.502h6.497V.841c0-.277.208-.501.464-.501h12.066c.256 0 .464.225.464.501v28.586h4.177c.256 0 .464.224.464.502s-.208.502-.464.502H1.306c-.256 0-.464-.225-.464-.502s.208-.502.464-.502zm17.636 0h1.856v-4.514c0-.277-.208-.502-.464-.502h-.928c-.256 0-.464.225-.464.502v4.514zm-1.857-16.55v16.55h.928v-4.514c0-.831.623-1.505 1.392-1.505h.928c.769 0 1.392.674 1.392 1.505v4.514h1.392V1.344H11.979v11.033h4.641c.256 0 .464.225.464.502zM5.019 29.428h11.138V13.38H5.019v16.048z" style="fill:var(--color2, #84829a)"/><path fill="#84829a" d="M13.837 7.361h2.785c.256 0 .464.225.464.502v3.009c0 .277-.208.502-.464.502h-2.785c-.256 0-.464-.225-.464-.502V7.863c0-.277.208-.502.464-.502zm.464 3.009h1.856V8.364h-1.856v2.006zM13.837 2.347h2.785c.256 0 .464.225.464.502v3.009c0 .277-.208.502-.464.502h-2.785c-.256 0-.464-.225-.464-.502V2.849c0-.277.208-.502.464-.502zm.464 3.009h1.856V3.35h-1.856v2.006zM18.478 7.361h2.785c.256 0 .464.225.464.502v3.009c0 .277-.208.502-.464.502h-2.785c-.256 0-.464-.225-.464-.502V7.863c0-.277.208-.502.464-.502zm.464 3.009h1.856V8.364h-1.856v2.006zM18.478 2.347h2.785c.256 0 .464.225.464.502v3.009c0 .277-.208.502-.464.502h-2.785c-.256 0-.464-.225-.464-.502V2.849c0-.277.208-.502.464-.502zm.464 3.009h1.856V3.35h-1.856v2.006zM18.478 12.377h2.785c.256 0 .464.225.464.502v3.009c0 .277-.208.502-.464.502h-2.785c-.256 0-.464-.225-.464-.502v-3.009c0-.277.208-.502.464-.502zm.464 3.009h1.856V13.38h-1.856v2.006zM18.478 17.392h2.785c.256 0 .464.225.464.502v3.009c0 .277-.208.502-.464.502h-2.785c-.256 0-.464-.225-.464-.502v-3.009c0-.277.208-.502.464-.502zm.464 3.009h1.856v-2.006h-1.856v2.006zM9.66 23.41H6.875c-.256 0-.464-.224-.464-.502v-3.009c0-.277.208-.502.464-.502H9.66c.256 0 .464.225.464.502v3.009c0 .277-.208.502-.464.502zm-.464-3.009H7.34v2.006h1.856v-2.006zM9.66 18.394H6.875c-.256 0-.464-.225-.464-.502v-3.009c0-.277.208-.502.464-.502H9.66c.256 0 .464.225.464.502v3.009c0 .277-.208.502-.464.502zm-.464-3.009H7.34v2.006h1.856v-2.006zM9.66 28.425H6.875c-.256 0-.464-.225-.464-.502v-3.009c0-.277.208-.501.464-.501H9.66c.256 0 .464.224.464.501v3.009c0 .277-.208.502-.464.502zm-.464-3.01H7.34v2.006h1.856v-2.006zM14.301 23.41h-2.785c-.256 0-.464-.224-.464-.502v-3.009c0-.277.208-.502.464-.502h2.785c.256 0 .464.225.464.502v3.009c0 .277-.208.502-.464.502zm-.464-3.009h-1.856v2.006h1.856v-2.006zM14.301 18.394h-2.785c-.256 0-.464-.225-.464-.502v-3.009c0-.277.208-.502.464-.502h2.785c.256 0 .464.225.464.502v3.009c0 .277-.208.502-.464.502zm-.464-3.009h-1.856v2.006h1.856v-2.006zM14.301 28.425h-2.785c-.256 0-.464-.225-.464-.502v-3.009c0-.277.208-.501.464-.501h2.785c.256 0 .464.224.464.501v3.009c0 .277-.208.502-.464.502zm-.464-3.01h-1.856v2.006h1.856v-2.006z" style="fill:var(--color2, #84829a)"/></symbol><symbol id="icon-telegram" viewBox="0 0 30 32"><path fill="#84829a" d="M24.787 4.12 12.101 17.879a2.633 2.633 0 0 0-.457-.228l-8.375-3.063c-.253-.069-.478-.227-.639-.449s-.248-.497-.248-.779c0-.282.087-.556.248-.779s.385-.381.639-.449l20.78-7.987c.136-.05.278-.075.422-.076a.899.899 0 0 1 .316.051zM25.595 5.817l-7.392 22.481c-.081.262-.24.488-.452.643s-.464.232-.72.217c-.258.013-.513-.067-.725-.228s-.369-.392-.446-.658l-2.788-9.051a3.084 3.084 0 0 0-.211-.494L25.617 5.018c.072.262.064.541-.023.797z" style="fill:var(--color2, #84829a)"/></symbol><symbol id="icon-map" viewBox="0 0 27 32"><path fill="#84829a" d="M25.656 1.594a.873.873 0 0 0-.417.106l-7.065 3.818-7.989-3.837c-.013-.006-.028-.007-.042-.013a.744.744 0 0 0-.11-.036.877.877 0 0 0-.113-.025 1.23 1.23 0 0 0-.227 0 1.087 1.087 0 0 0-.223.061c-.014.006-.029.007-.042.013l-8.391 4.03a1.015 1.015 0 0 0-.554.921v22.164c0 .341.16.659.424.844s.598.215.887.077l8.012-3.849 8.012 3.849c.014.006.029 0 .043.009a.769.769 0 0 0 .706-.017c.015-.007.032 0 .047-.011l7.459-4.03a1.02 1.02 0 0 0 .516-.902V2.602c0-.556-.417-1.008-.932-1.008zM8.874 24.111l-6.526 3.134V7.286l6.526-3.134v19.959zm8.391 3.134-6.526-3.134V4.152l6.526 3.134v19.959zm7.458-3.102-5.594 3.022V7.253l5.594-3.022v19.912z" style="fill:var(--color2, #84829a)"/></symbol><symbol id="icon-leaf" viewBox="0 0 32 32"><path fill="#84829a" d="M29.816 1.752c-.741-.234-18.86-2.184-25.223 7.106-2.818 4.115-2.861 9.757-.141 16.767a36.962 36.962 0 0 0-1.786 4.897c-.15.523.121 1.077.604 1.238.09.03.181.045.271.045.391 0 .753-.273.874-.697C9.265 14.164 25.026 5.967 29.86 3.896c.47-.202 1.099-1.781-.044-2.143z" style="fill:var(--color2, #84829a)"/><path fill="#84829a" d="M7.36 27.745c2.623 1.189 5.246 1.799 7.686 1.799 2.192 0 4.237-.487 5.999-1.475 3.546-1.988 5.713-5.79 6.266-10.997.564-5.306 1.265-8.63 1.851-10.664C23.95 9.006 12.776 15.739 7.36 27.745z" style="fill:var(--color2, #84829a)"/></symbol><symbol id="icon-send" viewBox="0 0 36 32"><path fill="#fff" d="M29.197 9.949c.536.852.464 1.865-.188 2.646l-14.31 17.143c-.59.707-1.562 1.067-2.556.892-.973-.172-1.745-.823-2.012-1.699l-2.338-7.638-6.036-5.678c-.692-.651-.921-1.59-.596-2.449.321-.85 1.126-1.466 2.119-1.586l23.327-2.806c1.062-.128 2.054.322 2.59 1.173z" style="fill:var(--color1, #fff)"/><path fill="#fff" d="m8.014 22.013 2.117 6.918c.268.876 1.039 1.527 2.012 1.699.994.175 1.965-.185 2.555-.892l14.31-17.143c.652-.78.724-1.794.188-2.646L7.792 21.293l.221.72z" style="fill:var(--color1, #fff)"/><path d="M16.503 16.676c.218.346.089.789-.289.99l-8.2 4.346-.221-.72-.569-.535 8.2-4.346c.378-.2.86-.081 1.078.265z" style="fill:var(--color2, #000)"/><path d="m8.014 22.013 8.2-4.346c.378-.2.507-.643.289-.99l-8.71 4.616.22.72z" style="fill:var(--color2, #000)"/></symbol><symbol id="icon-youtube" viewBox="0 0 44 32"><path fill="#e42f08" d="M42.613 5.211c-.242-.947-.718-1.811-1.377-2.505s-1.481-1.193-2.382-1.448C35.536.314 22.201.314 22.201.314s-13.334 0-16.653.944c-.901.255-1.723.754-2.382 1.448S2.031 4.264 1.789 5.211c-.62 3.559-.92 7.17-.898 10.788a60.713 60.713 0 0 0 .898 10.788c.243.948.717 1.811 1.377 2.505s1.481 1.193 2.382 1.448c3.318.944 16.653.944 16.653.944s13.334 0 16.653-.944c.901-.255 1.723-.755 2.382-1.448s1.135-1.558 1.377-2.505c.62-3.559.92-7.17.898-10.788a60.806 60.806 0 0 0-.898-10.788zM17.939 22.722V9.277L29.005 16l-11.066 6.723z" style="fill:var(--color1, #e42f08)"/></symbol><symbol id="icon-twitter" viewBox="0 0 40 32"><path fill="#21a6df" d="M39.201 3.945c-1.411.617-2.946 1.062-4.527 1.235A7.934 7.934 0 0 0 38.131.783a15.368 15.368 0 0 1-4.988 1.927c-.736-.798-1.625-1.434-2.613-1.867S28.476.187 27.399.189c-4.356 0-7.86 3.583-7.86 7.981 0 .617.074 1.235.194 1.829C13.21 9.653 7.392 6.49 3.525 1.649a8.004 8.004 0 0 0-1.069 4.028 8.018 8.018 0 0 0 3.503 6.648 7.847 7.847 0 0 1-3.554-1.015v.098c0 3.878 2.701 7.092 6.302 7.831a8.218 8.218 0 0 1-2.07.271c-.512 0-.996-.052-1.484-.122.996 3.162 3.895 5.459 7.348 5.534a15.61 15.61 0 0 1-9.759 3.41 15.8 15.8 0 0 1-1.899-.098 22.022 22.022 0 0 0 12.073 3.579c14.456 0 22.367-12.154 22.367-22.703 0-.346 0-.692-.023-1.039a17.056 17.056 0 0 0 3.941-4.126z" style="fill:var(--color2, #21a6df)"/></symbol><symbol id="icon-instagram" viewBox="0 0 33 32"><path fill="#e61f5a" d="M16.669 7.796c-4.54 0-8.204 3.664-8.204 8.204s3.664 8.204 8.204 8.204c4.54 0 8.204-3.664 8.204-8.204s-3.664-8.204-8.204-8.204zm0 13.536c-2.936 0-5.332-2.396-5.332-5.332s2.396-5.332 5.332-5.332 5.332 2.396 5.332 5.332-2.396 5.332-5.332 5.332zm8.54-15.784c-1.06 0-1.916.856-1.916 1.916s.856 1.916 1.916 1.916 1.916-.852 1.916-1.916a1.925 1.925 0 0 0-.56-1.356 1.906 1.906 0 0 0-1.356-.56zM32.661 16c0-2.208.02-4.396-.104-6.6-.124-2.56-.708-4.832-2.58-6.704C28.101.82 25.833.24 23.273.116c-2.208-.124-4.396-.104-6.6-.104-2.208 0-4.396-.02-6.6.104-2.56.124-4.832.708-6.704 2.58C1.493 4.572.913 6.84.789 9.4.665 11.608.685 13.796.685 16s-.02 4.396.104 6.6c.124 2.56.708 4.832 2.58 6.704 1.876 1.876 4.144 2.456 6.704 2.58 2.208.124 4.396.104 6.6.104 2.208 0 4.396.02 6.6-.104 2.56-.124 4.832-.708 6.704-2.58 1.876-1.876 2.456-4.144 2.58-6.704.128-2.204.104-4.392.104-6.6zm-3.52 9.432a5.083 5.083 0 0 1-1.208 1.832 5.117 5.117 0 0 1-1.832 1.208c-2.104.836-7.1.648-9.432.648s-7.332.188-9.436-.644a5.083 5.083 0 0 1-1.832-1.208 5.117 5.117 0 0 1-1.208-1.832c-.832-2.108-.644-7.104-.644-9.436s-.188-7.332.644-9.436c.292-.728.644-1.272 1.208-1.832s1.104-.916 1.832-1.208c2.104-.832 7.104-.644 9.436-.644s7.332-.188 9.436.644a5.083 5.083 0 0 1 1.832 1.208 5.117 5.117 0 0 1 1.208 1.832c.832 2.104.644 7.104.644 9.436s.188 7.328-.648 9.432z" style="fill:var(--color3, #e61f5a)"/></symbol><symbol id="icon-facebook" viewBox="0 0 33 32"><path fill="#335bf5" d="M31.387 0H1.947C1.239 0 .667.572.667 1.28v29.44c0 .708.572 1.28 1.28 1.28h29.44c.708 0 1.28-.572 1.28-1.28V1.28c0-.708-.572-1.28-1.28-1.28zm-3.696 9.34h-2.556c-2.004 0-2.392.952-2.392 2.352v3.084h4.784l-.624 4.828h-4.16V32h-4.988V19.608h-4.172v-4.832h4.172v-3.56c0-4.132 2.524-6.384 6.212-6.384 1.768 0 3.284.132 3.728.192V9.34h-.004z" style="fill:var(--color4, #335bf5)"/></symbol>
</defs></svg>



